<?xml version="1.0" encoding="UTF-8"?>
<!DOCTYPE svg PUBLIC "-//W3C//DTD SVG 1.1//EN" "http://www.w3.org/Graphics/SVG/1.1/DTD/svg11.dtd">
<!-- Creator: CorelDRAW -->
<svg xmlns="http://www.w3.org/2000/svg" xml:space="preserve" width="7.98705in" height="7.98706in" version="1.1" style="shape-rendering:geometricPrecision; text-rendering:geometricPrecision; image-rendering:optimizeQuality; fill-rule:evenodd; clip-rule:evenodd"
viewBox="0 0 7981.44 7981.44"
 xmlns:xlink="http://www.w3.org/1999/xlink"
 xmlns:xodm="http://www.corel.com/coreldraw/odm/2003">
 <defs>
  <style type="text/css">
   <![CDATA[
    .fil3 {fill:#0203BF}
    .fil2 {fill:#BA9544}
    .fil1 {fill:#0203BF;fill-rule:nonzero}
    .fil0 {fill:#BA9544;fill-rule:nonzero}
    .fil4 {fill:white;fill-rule:nonzero}
   ]]>
  </style>
 </defs>
 <g id="Layer_x0020_1">
  <metadata id="CorelCorpID_0Corel-Layer"/>
  <path class="fil0" d="M3990.72 974.24c832.97,0 1587.1,337.64 2132.97,883.51 545.88,545.88 883.51,1300 883.51,2132.97 0,832.97 -337.64,1587.09 -883.51,2132.97 -545.88,545.88 -1300,883.51 -2132.97,883.51 -832.97,0 -1587.09,-337.63 -2132.97,-883.51 -545.88,-545.88 -883.51,-1300 -883.51,-2132.97 0,-832.97 337.64,-1587.09 883.51,-2132.97 545.88,-545.88 1300,-883.51 2132.97,-883.51zm2069.68 946.81c-529.67,-529.67 -1261.42,-857.28 -2069.68,-857.28 -808.26,0 -1540,327.61 -2069.67,857.28 -529.67,529.67 -857.28,1261.42 -857.28,2069.68 0,808.26 327.61,1540.01 857.28,2069.68 529.67,529.67 1261.42,857.28 2069.67,857.28 808.26,0 1540.01,-327.61 2069.68,-857.28 529.67,-529.67 857.28,-1261.42 857.28,-2069.68 0,-808.26 -327.61,-1540 -857.28,-2069.68z"/>
  <path class="fil0" d="M3990.72 0c1102,0 2099.68,446.68 2821.86,1168.86 722.18,722.18 1168.86,1719.86 1168.86,2821.86 0,1102 -446.68,2099.68 -1168.86,2821.86 -722.18,722.18 -1719.86,1168.86 -2821.86,1168.86 -1102,0 -2099.68,-446.68 -2821.86,-1168.86 -722.18,-722.18 -1168.86,-1719.86 -1168.86,-2821.86 0,-1102 446.68,-2099.68 1168.86,-2821.86 722.18,-722.18 1719.86,-1168.86 2821.86,-1168.86zm2758.57 1232.16c-705.98,-705.98 -1681.27,-1142.63 -2758.57,-1142.63 -1077.29,0 -2052.59,436.65 -2758.56,1142.63 -705.98,705.97 -1142.63,1681.27 -1142.63,2758.56 0,1077.29 436.65,2052.59 1142.63,2758.56 705.97,705.98 1681.27,1142.63 2758.56,1142.63 1077.29,0 2052.6,-436.65 2758.57,-1142.63 705.98,-705.97 1142.63,-1681.27 1142.63,-2758.56 0,-1077.29 -436.65,-2052.59 -1142.63,-2758.56z"/>
  <path class="fil1" d="M1642.54 6192.64c25.12,25.95 46.05,54.06 62.78,84.33 16.74,30.27 27.28,57.92 31.62,82.94l-94.57 34.54c-4.67,-22.94 -13.05,-46.55 -25.13,-70.8 -12.08,-24.25 -27.02,-45.59 -44.84,-63.99 -11.98,-12.37 -22.75,-21.24 -32.31,-26.59 -9.57,-5.35 -17.92,-7.94 -25.05,-7.76 -7.13,0.18 -13.26,2.75 -18.39,7.72 -7.24,7.01 -9.76,15.88 -7.56,26.61 2.2,10.73 7.06,22.69 14.56,35.88 7.51,13.19 16.11,27.51 25.81,42.97 9.7,15.45 18.64,31.64 26.83,48.55 8.19,16.92 14,33.94 17.43,51.07 3.43,17.13 2.86,34.35 -1.73,51.65 -4.59,17.3 -15.34,34.13 -32.23,50.49 -19.01,18.4 -41.25,29.85 -66.72,34.33 -25.47,4.49 -52.95,0.85 -82.47,-10.92 -29.51,-11.77 -59.3,-33.19 -89.39,-64.27 -20.15,-20.82 -37.6,-43.53 -52.35,-68.13 -14.75,-24.6 -25.19,-49.12 -31.32,-73.57l93.27 -36.8c6.46,22.98 14.8,43.83 25.05,62.56 10.24,18.73 22.08,35.04 35.51,48.92 11.98,12.37 22.9,21.09 32.77,26.15 9.86,5.06 18.51,7.21 25.95,6.44 7.44,-0.77 13.87,-3.78 19.31,-9.04 6.94,-6.72 9.31,-15.29 7.1,-25.72 -2.21,-10.43 -7.21,-22.25 -15.01,-35.44 -7.81,-13.2 -16.56,-27.52 -26.26,-42.97 -9.7,-15.45 -18.72,-31.56 -27.06,-48.33 -8.34,-16.77 -14.23,-33.72 -17.66,-50.85 -3.43,-17.13 -2.78,-34.28 1.95,-51.43 4.74,-17.15 15.4,-33.76 32,-49.82 18.41,-17.82 40.42,-29.04 66.04,-33.68 25.62,-4.63 53.11,-1.14 82.47,10.48 29.36,11.61 59.23,33.11 89.61,64.5zm-490.87 -151.72l-117.2 -167.87 76.45 -53.37 117.2 167.87 -76.45 53.37zm137.52 -106.76l-131.99 -189.06 79.03 -55.17 202.67 290.29 -361.57 252.44 -197.99 -283.58 79.03 -55.17 127.3 182.34 203.51 -142.09zm-200.63 -541.16c16.94,30.46 27.74,61.34 32.41,92.62 4.66,31.29 3.26,61.38 -4.21,90.29 -7.47,28.9 -20.45,55.46 -38.94,79.68 -18.49,24.22 -42.42,44.49 -71.78,60.82 -29.36,16.33 -59.21,25.96 -89.54,28.89 -30.33,2.93 -59.74,-0.06 -88.24,-8.96 -28.5,-8.9 -54.8,-23.59 -78.92,-44.05 -24.12,-20.47 -44.65,-45.93 -61.59,-76.4 -19.8,-35.6 -31.27,-70.91 -34.4,-105.93 -3.14,-35.02 1.84,-68.42 14.92,-100.2l101.34 34.46c-7.74,20.65 -11.33,40.55 -10.78,59.69 0.56,19.15 5.94,37.9 16.15,56.26 8.78,15.78 19.41,28.85 31.89,39.21 12.49,10.35 26.2,17.51 41.13,21.46 14.93,3.95 30.67,4.81 47.21,2.58 16.54,-2.23 33.07,-7.94 49.58,-17.12 16.52,-9.19 30.09,-20.22 40.71,-33.09 10.62,-12.88 18.19,-26.69 22.71,-41.46 4.52,-14.77 5.68,-30.19 3.47,-46.26 -2.21,-16.07 -7.7,-32 -16.48,-47.78 -10.21,-18.35 -23.29,-32.82 -39.27,-43.39 -15.97,-10.58 -34.77,-18.02 -56.39,-22.34l24.18 -104.28c33.54,5.86 64.44,19.31 92.72,40.35 28.28,21.04 52.32,49.36 72.12,84.96zm-178.74 -449.05c17.15,62.8 13.33,116.52 -11.48,161.18 -24.81,44.65 -68.81,75.62 -132.01,92.88l-235.79 64.42 -32.87 -120.32 232.14 -63.42c36.46,-9.96 60.63,-24.29 72.5,-42.99 11.87,-18.7 14.38,-40.61 7.51,-65.73 -6.86,-25.12 -20.13,-42.61 -39.8,-52.47 -19.68,-9.86 -47.74,-9.82 -84.2,0.15l-232.14 63.42 -32.37 -118.5 235.79 -64.42c63.2,-17.26 116.84,-12.98 160.9,12.86 44.07,25.84 74.68,70.16 91.83,132.95zm-87.14 -321.01l-435.73 67.87 -31.03 -199.19c-6.2,-39.84 -5.12,-75.18 3.25,-106.02 8.37,-30.84 23.47,-56.04 45.29,-75.59 21.82,-19.55 49.33,-31.91 82.53,-37.08 32.78,-5.11 62.33,-1.63 88.65,10.42 26.32,12.05 48.05,31.52 65.2,58.38 17.15,26.87 28.83,60.22 35.03,100.06l20.36 130.72 -60.2 -46.73 167.44 -26.08 19.2 123.25zm-41.98 -269.53l-141.86 133.03 -20.46 -131.34 141.76 -133.65 20.55 131.96zm-131.58 170.33l-48.12 63.6 -19.2 -123.25c-4.01,-25.73 -12.6,-44.04 -25.77,-54.96 -13.18,-10.91 -29.73,-14.82 -49.64,-11.72 -20.34,3.17 -35.12,11.95 -44.35,26.36 -9.23,14.4 -11.85,34.47 -7.84,60.19l19.2 123.25 -65.18 -45.96 240.9 -37.52zm117.96 -404.73l-440.49 20.61 -5.83 -124.6 440.5 -20.61 5.83 124.6zm4.04 -348.62l-341.78 -14.27 -5.65 135.33 -98.82 -4.13 16.47 -394.64 98.82 4.12 -5.62 134.7 341.78 14.27 -5.2 124.62zm41.89 -344.69l-434.98 -72.45 20.49 -123.04 434.99 72.46 -20.5 123.04zm-177.31 -454.44l70.2 -192.33 87.58 31.97 -70.19 192.33 -87.59 -31.97zm166.36 51.33l79.05 -216.59 90.54 33.04 -121.39 332.58 -414.25 -151.19 118.58 -324.89 90.54 33.04 -76.24 208.9 233.16 85.1zm282.26 -423.67c-17.29,31.71 -37.88,60.07 -61.79,85.07 -23.9,25 -47.15,43.3 -69.74,54.91l-61.17 -79.97c20.51,-11.3 40.54,-26.34 60.09,-45.1 19.55,-18.76 35.46,-39.39 47.71,-61.88 8.24,-15.12 13.49,-28.04 15.74,-38.77 2.26,-10.73 2.24,-19.47 -0.06,-26.22 -2.3,-6.75 -6.58,-11.83 -12.85,-15.25 -8.85,-4.82 -18.07,-4.58 -27.65,0.72 -9.59,5.3 -19.55,13.5 -29.91,24.6 -10.35,11.1 -21.46,23.58 -33.32,37.44 -11.86,13.86 -24.64,27.23 -38.35,40.09 -13.7,12.86 -28.22,23.48 -43.55,31.87 -15.33,8.38 -31.94,12.97 -49.82,13.75 -17.88,0.78 -37.15,-4.47 -57.8,-15.72 -23.24,-12.66 -40.79,-30.48 -52.66,-53.45 -11.87,-22.97 -16.59,-50.3 -14.16,-81.97 2.44,-31.67 14.01,-66.5 34.7,-104.49 13.87,-25.44 30.34,-48.87 49.42,-70.28 19.09,-21.41 39.38,-38.69 60.89,-51.83l62.93 78.06c-20.01,13.01 -37.42,27.2 -52.25,42.56 -14.83,15.36 -26.86,31.52 -36.11,48.48 -8.24,15.12 -13.31,28.15 -15.19,39.07 -1.89,10.93 -1.36,19.82 1.59,26.7 2.95,6.87 7.75,12.11 14.39,15.73 8.48,4.62 17.37,4.32 26.67,-0.89 9.3,-5.22 19.09,-13.51 29.35,-24.9 10.27,-11.39 21.33,-24.01 33.19,-37.87 11.86,-13.86 24.55,-27.28 38.07,-40.24 13.52,-12.96 27.95,-23.63 43.28,-32.02 15.33,-8.38 31.89,-12.88 49.67,-13.47 17.78,-0.59 36.81,4.64 57.1,15.69 22.49,12.26 39.77,29.92 51.83,52.99 12.06,23.07 16.92,50.35 14.58,81.85 -2.33,31.49 -13.95,66.41 -34.85,104.76zm177.99 -368.14l-221.27 -428.25 77.07 -95.66 465.92 124.59 -81.42 101.05 -391.46 -119.61 30.83 -38.27 200.16 357.05 -79.84 99.09zm0.08 -136.66l-51.46 -82.73 135.17 -167.77 91.78 32.69 -175.48 217.81zm373.38 -320.1l-302.77 -320.62 74.66 -70.5 378.35 46.49 -35.27 33.3 -201.55 -213.44 88.86 -83.91 302.76 320.62 -74.66 70.5 -378.35 -46.49 35.27 -33.3 201.56 213.44 -88.85 83.91zm408.26 -368.15l-240.27 -369.78 174.85 -113.61c40.85,-26.54 81.69,-42.31 122.52,-47.31 40.83,-5 78.89,0.58 114.17,16.72 35.28,16.14 65.28,43.23 89.99,81.26 24.48,37.68 36.99,76.01 37.52,114.98 0.53,38.97 -9.78,76.1 -30.93,111.38 -21.15,35.28 -52.16,66.19 -93.01,92.73l-174.85 113.62zm50.36 -151.42l66.04 -42.91c21.13,-13.73 36.95,-29.65 47.47,-47.75 10.52,-18.11 15.21,-37.68 14.06,-58.72 -1.15,-21.04 -8.59,-42.13 -22.32,-63.25 -13.96,-21.48 -30.26,-36.93 -48.91,-46.36 -18.64,-9.42 -38.37,-13.01 -59.19,-10.75 -20.82,2.26 -41.79,10.26 -62.92,23.98l-66.04 42.91 131.8 202.85zm581.47 -507.32l189.55 -77.4 35.25 86.32 -189.55 77.4 -35.25 -86.32zm73.9 157.64l213.46 -87.17 36.44 89.23 -327.77 133.84 -166.71 -408.25 320.18 -130.75 36.44 89.23 -205.87 84.07 93.84 229.79zm310.74 -12.91l127.62 -304.23 19.36 86.69 -239.4 -213.7 136.88 -31.59 153.8 139.71 -58.18 14.07 75.03 -193.17 131.36 -30.32 -122.67 292.1 -19.83 -85.94 251.49 221.25 -139.96 32.3 -157.62 -147.88 55.86 -12.89 -75.02 201.57 -138.73 32.02zm744.39 -115.92c-34.76,2.59 -67.32,-0.56 -97.68,-9.46 -30.35,-8.9 -57.08,-22.8 -80.18,-41.71 -23.1,-18.92 -41.76,-41.84 -55.98,-68.79 -14.22,-26.95 -22.58,-57.17 -25.08,-90.68 -2.5,-33.5 1.29,-64.64 11.35,-93.39 10.07,-28.76 25.12,-54.2 45.16,-76.33 20.04,-22.13 44.41,-39.85 73.11,-53.15 28.7,-13.3 60.43,-21.24 95.19,-23.84 40.62,-3.03 77.49,1.38 110.59,13.23 33.1,11.85 61.33,30.38 84.69,55.59l-73.82 77.52c-15.49,-15.69 -32.04,-27.3 -49.66,-34.83 -17.62,-7.53 -36.9,-10.51 -57.84,-8.95 -18.01,1.34 -34.34,5.51 -48.98,12.49 -14.64,6.99 -26.89,16.43 -36.74,28.33 -9.85,11.89 -17.24,25.82 -22.15,41.77 -4.92,15.95 -6.67,33.35 -5.27,52.19 1.41,18.85 5.72,35.79 12.95,50.84 7.23,15.04 16.59,27.72 28.11,38.02 11.5,10.3 25.01,17.82 40.53,22.56 15.51,4.74 32.28,6.44 50.29,5.09 20.94,-1.56 39.56,-7.37 55.87,-17.43 16.3,-10.06 30.95,-23.99 43.95,-41.81l84.5 65.71c-19.4,27.98 -44.57,50.39 -75.53,67.22 -30.96,16.84 -66.75,26.77 -107.38,29.8zm613.43 -432.32l124.38 9.43 -33.35 439.72 -124.37 -9.43 33.35 -439.72zm-202.96 426.85l-124.37 -9.43 33.35 -439.72 124.38 9.43 -33.35 439.71zm191.41 -157.96l-187.2 -14.19 7.81 -103.02 187.2 14.2 -7.81 103.02zm180 192.62l303.99 -374.09 118.5 32.37 72.17 476.86 -125.18 -34.2 -46.96 -406.62 47.4 12.95 -247.17 326.27 -122.76 -33.54zm125.28 -54.59l55.23 -80.25 207.83 56.78 6.75 97.19 -269.82 -73.71zm441 220.03l184.46 -400.55 93.27 42.95 98.08 368.36 -44.06 -20.29 122.8 -266.65 111.01 51.12 -184.46 400.55 -93.27 -42.95 -98.08 -368.37 44.06 20.29 -122.8 266.65 -111.01 -51.12zm670.86 373.38c-28.67,-19.82 -52.11,-42.8 -70.3,-68.91 -18.2,-26.12 -30.34,-53.79 -36.42,-83.01 -6.09,-29.23 -6.19,-58.79 -0.33,-88.69 5.87,-29.9 18.36,-58.66 37.47,-86.3 19.11,-27.63 41.61,-49.48 67.52,-65.52 25.9,-16.04 53.68,-26.32 83.35,-30.82 29.66,-4.5 60.01,-2.8 91.05,5.13 31.03,7.92 61.22,22.04 90.58,42.34 34.2,23.64 60.83,50.48 79.89,80.52 19.06,30.03 29.99,61.84 32.8,95.44l-106.13 13.92c-3.12,-22.07 -9.52,-41.43 -19.2,-58.08 -9.68,-16.65 -23.33,-31.06 -40.94,-43.25 -15.54,-10.75 -31.38,-18.13 -47.5,-22.13 -16.13,-4 -31.84,-4.53 -47.16,-1.59 -15.31,2.94 -29.83,8.99 -43.56,18.13 -13.73,9.15 -26.08,21.67 -37.07,37.55 -10.51,15.2 -17.68,30.92 -21.51,47.17 -3.83,16.24 -4.42,32.05 -1.77,47.42 2.65,15.36 8.55,29.91 17.69,43.64 9.15,13.72 21.32,25.84 36.52,36.35 15.2,10.51 31.78,18.28 49.76,23.31 17.97,5.02 38.57,6.62 61.78,4.8l7.71 111.8c-31,0.52 -62.89,-4.68 -95.67,-15.61 -32.78,-10.93 -62.3,-25.46 -88.56,-43.62zm102.87 -16.95l94.59 -136.79 90.68 62.7 -103.91 150.26 -81.36 -76.17zm416.09 75.43l148.86 140.57 -64.01 67.79 -148.86 -140.57 64.01 -67.79zm-112.96 132.47l167.64 158.3 -66.18 70.08 -257.41 -243.08 302.76 -320.61 251.46 237.45 -66.18 70.08 -161.68 -152.68 -170.42 180.46zm404.17 619.66c-19.53,-28.87 -32.99,-58.69 -40.36,-89.45 -7.37,-30.76 -8.6,-60.86 -3.67,-90.31 4.93,-29.45 15.54,-57.04 31.85,-82.78 16.3,-25.74 38.37,-48.02 66.2,-66.85 27.83,-18.83 56.72,-31.03 86.68,-36.58 29.96,-5.56 59.52,-5.15 88.68,1.23 29.16,6.39 56.65,18.72 82.46,37.01 25.81,18.29 48.48,41.86 68.01,70.74 22.83,33.74 37.33,67.92 43.51,102.53 6.17,34.61 4.13,68.32 -6.13,101.12l-103.96 -25.5c5.91,-21.24 7.75,-41.38 5.53,-60.41 -2.23,-19.03 -9.22,-37.24 -20.99,-54.63 -10.12,-14.96 -21.85,-27.05 -35.19,-36.28 -13.34,-9.23 -27.63,-15.16 -42.84,-17.79 -15.22,-2.63 -30.97,-2.12 -47.25,1.55 -16.28,3.66 -32.25,10.79 -47.9,21.38 -15.65,10.59 -28.21,22.76 -37.67,36.51 -9.46,13.75 -15.8,28.18 -19.01,43.29 -3.22,15.11 -3.03,30.57 0.58,46.38 3.6,15.82 10.46,31.21 20.58,46.16 11.77,17.39 26.07,30.66 42.9,39.81 16.84,9.14 36.21,14.92 58.13,17.34l-15 105.98c-33.92,-2.92 -65.88,-13.62 -95.88,-32.11 -30.01,-18.49 -56.42,-44.6 -79.25,-78.35zm255.65 427.73c-16.66,-31.1 -27.03,-62.46 -31.11,-94.11 -4.08,-31.64 -2.17,-62.09 5.75,-91.33 7.92,-29.26 21.21,-55.8 39.9,-79.62 18.68,-23.83 42.65,-43.57 71.89,-59.23 29.25,-15.67 58.96,-24.68 89.15,-27.03 30.18,-2.35 59.64,1.28 88.38,10.9 28.74,9.62 55.15,24.9 79.22,45.83 24.07,20.93 44.44,46.95 61.1,78.05 16.85,31.47 27.28,62.93 31.26,94.38 3.98,31.45 1.97,61.71 -6.05,90.78 -8.01,29.07 -21.31,55.61 -39.9,79.61 -18.58,24.01 -42.5,43.85 -71.74,59.51 -29.25,15.67 -59.11,24.63 -89.57,26.9 -30.47,2.27 -59.93,-1.37 -88.38,-10.9 -28.45,-9.54 -54.67,-24.68 -78.64,-45.42 -23.98,-20.75 -44.39,-46.85 -61.25,-78.32zm91.07 -48.78c7.93,14.81 17.91,27.21 29.93,37.21 12.03,10 25.47,17.09 40.34,21.27 14.87,4.19 30.59,5.3 47.16,3.32 16.57,-1.97 33.19,-7.42 49.85,-16.34 17.03,-9.12 30.86,-19.99 41.5,-32.59 10.64,-12.61 18.33,-26.26 23.09,-40.95 4.76,-14.69 6.31,-29.82 4.65,-45.37 -1.66,-15.55 -6.46,-30.73 -14.39,-45.53 -7.93,-14.81 -17.91,-27.21 -29.94,-37.21 -12.02,-10 -25.47,-17.09 -40.34,-21.27 -14.87,-4.19 -30.49,-5.34 -46.88,-3.47 -16.39,1.87 -33.1,7.37 -50.13,16.49 -16.67,8.92 -30.4,19.74 -41.23,32.45 -10.82,12.7 -18.61,26.4 -23.37,41.1 -4.75,14.7 -6.3,29.82 -4.64,45.37 1.66,15.54 6.45,30.73 14.39,45.53zm59.8 367.15l425.39 -116.21 27.06 99.05 -241.12 255.26 -14.28 -52.27 336.08 92.35 27.06 99.06 -425.06 117.43 -30.21 -110.6 256.72 -71.44 5.15 18.84 -250.15 -69.46 -14.61 -53.48 179.1 -190.64 6.31 23.09 -257.06 70.22 -30.38 -111.21zm152.12 624.58l439.72 -33.35 7.77 102.39 -285.19 204.85 -4.1 -54.02 312.44 154.47 7.76 102.39 -439.62 34.61 -8.68 -114.33 265.62 -21.41 1.48 19.48 -232.42 -115.68 -4.19 -55.28 212.03 -153.18 1.81 23.87 -265.71 20.15 -8.72 -114.95zm24.59 641.58l439.08 40.79 -11.54 124.2 -439.08 -40.79 11.54 -124.2zm-57.77 405.56c5.94,-35.63 16.1,-69.17 30.49,-100.62 14.39,-31.45 30.35,-56.36 47.89,-74.73l84 55.5c-15.67,17.4 -29.67,38.17 -41.99,62.3 -12.32,24.13 -20.59,48.83 -24.8,74.1 -2.83,16.99 -3.55,30.92 -2.17,41.79 1.38,10.87 4.26,19.12 8.65,24.75 4.39,5.63 10.1,9.03 17.14,10.2 9.95,1.66 18.57,-1.59 25.89,-9.74 7.32,-8.15 14.05,-19.16 20.19,-33.04 6.15,-13.88 12.55,-29.31 19.21,-46.29 6.66,-16.99 14.36,-33.8 23.09,-50.44 8.73,-16.64 18.96,-31.43 30.7,-44.38 11.74,-12.95 25.92,-22.72 42.56,-29.32 16.64,-6.59 36.56,-7.96 59.76,-4.1 26.1,4.35 48.52,15.43 67.27,33.24 18.75,17.81 32.16,42.08 40.24,72.8 8.08,30.73 8.57,67.42 1.46,110.09 -4.76,28.59 -12.64,56.12 -23.65,82.6 -11.01,26.48 -24.52,49.45 -40.54,68.92l-85.04 -53.12c14.64,-18.85 26.44,-37.96 35.42,-57.33 8.97,-19.37 15.05,-38.58 18.22,-57.64 2.83,-16.99 3.34,-30.95 1.55,-41.9 -1.8,-10.94 -5.22,-19.18 -10.26,-24.7 -5.04,-5.52 -11.29,-8.9 -18.75,-10.15 -9.53,-1.59 -17.83,1.61 -24.91,9.58 -7.08,7.97 -13.6,19.02 -19.57,33.14 -5.97,14.12 -12.29,29.67 -18.95,46.66 -6.66,16.98 -14.26,33.81 -22.78,50.49 -8.53,16.68 -18.66,31.49 -30.4,44.43 -11.73,12.95 -25.91,22.62 -42.51,29.01 -16.6,6.39 -36.3,7.68 -59.08,3.89 -25.27,-4.21 -47.38,-15.24 -66.34,-33.08 -18.95,-17.85 -32.49,-42.03 -40.61,-72.55 -8.11,-30.51 -8.58,-67.31 -1.41,-110.4zm-110.9 433.23c11.81,-34.13 27.44,-65.5 46.89,-94.1 19.45,-28.6 39.35,-50.49 59.71,-65.67l73.53 68.77c-18.36,14.53 -35.63,32.67 -51.81,54.4 -16.19,21.73 -28.47,44.7 -36.84,68.91 -5.63,16.28 -8.67,29.89 -9.12,40.84 -0.46,10.95 1,19.57 4.39,25.85 3.38,6.28 8.45,10.59 15.19,12.92 9.53,3.3 18.58,1.54 27.15,-5.27 8.58,-6.81 17.05,-16.54 25.43,-29.2 8.38,-12.65 17.27,-26.8 26.68,-42.43 9.41,-15.63 19.81,-30.92 31.2,-45.87 11.39,-14.94 23.96,-27.82 37.69,-38.62 13.73,-10.8 29.36,-18.07 46.86,-21.78 17.51,-3.72 37.38,-1.74 59.6,5.95 25.01,8.65 45.26,23.32 60.76,44.02 15.5,20.69 24.68,46.86 27.5,78.5 2.83,31.65 -2.83,67.9 -16.97,108.79 -9.47,27.39 -21.85,53.21 -37.13,77.48 -15.29,24.27 -32.45,44.66 -51.5,61.18l-74.96 -66.59c17.58,-16.13 32.41,-33 44.5,-50.6 12.09,-17.59 21.29,-35.52 27.61,-53.78 5.63,-16.27 8.47,-29.96 8.53,-41.05 0.06,-11.09 -1.93,-19.77 -5.98,-26.06 -4.05,-6.29 -9.64,-10.67 -16.79,-13.14 -9.13,-3.16 -17.85,-1.4 -26.16,5.28 -8.31,6.68 -16.59,16.48 -24.84,29.4 -8.25,12.92 -17.08,27.2 -26.49,42.83 -9.41,15.63 -19.71,30.95 -30.9,45.97 -11.19,15.01 -23.66,27.92 -37.39,38.72 -13.73,10.8 -29.33,17.96 -46.76,21.48 -17.44,3.52 -37.08,1.51 -58.91,-6.05 -24.21,-8.37 -44.17,-22.94 -59.87,-43.71 -15.7,-20.76 -25,-46.87 -27.9,-78.31 -2.9,-31.45 2.79,-67.81 17.07,-109.08zm-98.61 276.79l400.55 184.45 -52.17 113.3 -400.55 -184.45 52.17 -113.3zm-230.28 416.97c19.22,-29.59 41.71,-53.79 67.47,-72.61 25.75,-18.83 53.36,-31.82 82.8,-38.98 29.45,-7.16 59.11,-8.3 88.98,-3.41 29.88,4.89 58.73,16.37 86.55,34.45 27.82,18.08 50.04,39.78 66.64,65.09 16.61,25.32 27.62,52.88 33.04,82.7 5.42,29.81 4.76,60.32 -1.97,91.49 -6.74,31.18 -19.72,61.57 -38.95,91.15 -19.45,29.94 -41.99,54.23 -67.63,72.88 -25.64,18.64 -53.13,31.46 -82.46,38.45 -29.33,6.99 -58.99,8.12 -88.99,3.41 -29.99,-4.71 -58.9,-16.11 -86.72,-34.18 -27.82,-18.08 -50.07,-39.92 -66.74,-65.53 -16.67,-25.6 -27.69,-53.17 -33.04,-82.69 -5.36,-29.53 -4.73,-59.79 1.9,-90.8 6.63,-31.01 19.66,-61.48 39.11,-91.41zm86.64 56.29c-9.15,14.09 -15.21,28.81 -18.18,44.16 -2.96,15.35 -2.69,30.55 0.8,45.59 3.5,15.04 10.1,29.35 19.81,42.93 9.71,13.57 22.49,25.51 38.34,35.81 16.2,10.52 32.39,17.41 48.56,20.66 16.17,3.24 31.84,3.41 47.01,0.49 15.17,-2.92 29.16,-8.84 41.99,-17.79 12.83,-8.95 23.81,-20.47 32.97,-34.55 9.15,-14.09 15.21,-28.81 18.18,-44.16 2.97,-15.35 2.7,-30.55 -0.8,-45.59 -3.49,-15.04 -10.01,-29.3 -19.55,-42.76 -9.53,-13.46 -22.41,-25.45 -38.6,-35.97 -15.85,-10.3 -31.95,-17.13 -48.29,-20.49 -16.35,-3.36 -32.11,-3.58 -47.27,-0.66 -15.17,2.92 -29.16,8.85 -41.99,17.79 -12.82,8.95 -23.81,20.46 -32.97,34.55zm-280.13 237.79l334.11 287.81 -67.02 77.8 -381.13 -7.36 31.66 -36.75 222.42 191.59 -79.76 92.6 -334.12 -287.8 67.02 -77.8 381.13 7.35 -31.66 36.75 -222.42 -191.59 79.76 -92.6z"/>
  <path class="fil1" d="M2546.94 7414.63l142.79 -417.22 97.15 33.25 135.01 356.49 -45.89 -15.71 95.06 -277.75 115.63 39.57 -142.79 417.22 -97.15 -33.25 -135.01 -356.49 45.9 15.71 -95.06 277.75 -115.63 -39.57zm522.91 167.63l99.17 -429.69 121.54 28.06 -99.17 429.68 -121.54 -28.05zm466.19 95.33c-34.56,-4.55 -65.9,-14.29 -94,-29.22 -28.11,-14.93 -51.55,-34 -70.3,-57.23 -18.76,-23.23 -32.35,-49.48 -40.78,-78.76 -8.43,-29.28 -10.45,-60.57 -6.06,-93.88 4.39,-33.31 14.44,-63.02 30.16,-89.11 15.72,-26.1 35.75,-47.93 60.09,-65.48 24.34,-17.55 52.12,-29.88 83.34,-37 31.23,-7.12 64.53,-8.34 99.93,-3.68 41.22,5.43 77.17,17.15 107.83,35.17 30.67,18.02 54.92,41.33 72.76,69.95l-88.07 60.84c-12.85,-18.21 -27.38,-32.51 -43.59,-42.91 -16.21,-10.4 -34.94,-16.99 -56.17,-19.79 -18.73,-2.47 -36.19,-1.8 -52.36,2 -16.17,3.8 -30.4,10.51 -42.68,20.12 -12.28,9.61 -22.44,21.61 -30.48,36.01 -8.04,14.4 -13.32,31.18 -15.84,50.34 -2.41,18.32 -1.62,35.58 2.39,51.78 4.01,16.2 10.7,30.53 20.07,42.99 9.38,12.46 21.26,22.71 35.66,30.75 14.4,8.04 30.77,13.26 49.09,15.68 18.32,2.41 36.62,1.75 54.91,-1.98 18.28,-3.73 37.34,-11.71 57.16,-23.93l57.9 95.95c-27.34,14.62 -58.09,24.54 -92.25,29.79 -34.15,5.24 -67.06,5.78 -98.7,1.62zm83.78 -62.04l21.71 -164.89 109.3 14.4 -23.85 181.13 -107.16 -30.63zm331.05 -187.99l204.69 -4.48 2.04 93.21 -204.69 4.48 -2.04 -93.21zm12.62 173.64l230.52 -5.04 2.11 96.36 -353.96 7.75 -9.65 -440.87 345.77 -7.57 2.11 96.36 -222.33 4.87 5.43 248.15zm343.49 85.63l-57 -437.28 199.9 -26.06c39.98,-5.21 75.29,-3.25 105.91,5.89 30.63,9.14 55.44,24.86 74.44,47.16 19,22.3 30.67,50.11 35.02,83.43 4.28,32.9 0.08,62.35 -12.62,88.36 -12.7,26.01 -32.7,47.25 -59.99,63.72 -27.29,16.48 -60.92,27.32 -100.9,32.53l-131.19 17.1 48.21 -59.01 21.91 168.04 -123.69 16.13zm270.49 -35.26l-129.46 -145.13 131.81 -17.18 130.08 145.04 -132.43 17.26zm-167 -135.79l-62.38 -49.68 123.69 -16.12c25.82,-3.37 44.35,-11.5 55.58,-24.4 11.24,-12.9 15.55,-29.35 12.95,-49.34 -2.66,-20.41 -11.08,-35.4 -25.25,-44.99 -14.17,-9.59 -34.16,-12.7 -59.98,-9.34l-123.69 16.13 47.56 -64.01 31.51 241.75zm397.55 90.58l-99.17 -429.68 121.54 -28.06 99.17 429.68 -121.54 28.05zm197.05 -46.18l45.25 -479.9 116.54 -38.84 324.7 356.61 -123.11 41.03 -264.74 -312.18 46.62 -15.54 -24.53 408.59 -120.73 40.24zm73.92 -114.94l1.4 -97.42 204.4 -68.12 59.56 77.1 -265.36 88.44z"/>
  <g id="_1842550433680">
   <polygon class="fil2" points="1971.75,6746.71 2078.75,6835.22 2195.71,6760.35 2144.59,6889.47 2251.94,6977.56 2113.35,6968.85 2062.73,7098.16 2028.19,6963.66 1889.57,6955.49 2006.81,6881.07 "/>
   <polygon class="fil2" points="5868.77,6746.71 5975.77,6835.22 6092.72,6760.35 6041.61,6889.47 6148.95,6977.56 6010.36,6968.85 5959.75,7098.16 5925.21,6963.66 5786.58,6955.49 5903.83,6881.07 "/>
  </g>
  <path class="fil3" d="M3563.96 5637.51c-50.05,128.83 -153.52,217.31 -273.08,217.31 -119.55,0 -223.02,-88.47 -273.07,-217.31l546.14 0z"/>
  <path class="fil3" d="M4960.3 5624.24c-48.88,125.82 -149.93,212.23 -266.69,212.23 -116.75,0 -217.81,-86.41 -266.69,-212.23l533.38 0z"/>
  <polygon class="fil3" points="4566.76,6161.47 3431.49,6165.58 3252.24,6691.95 4746,6691.95 "/>
  <g id="_1842550435312">
   <path class="fil2" d="M4423.78 5536.23l539.85 0 -245.12 -759.89 59.77 0 0 0.7 66.88 0 0 -81.68 -66.75 0 -0.13 0 -574.36 0c6.94,11.91 34.16,1.8 34.16,19.96 0,94.73 -114.42,44.58 -91.81,24.18 14.57,-13.14 19.75,-30.24 22.83,-44.14l-9.66 0c-5.1,27.96 -39.46,59.7 -61.66,37.28 -27.77,-28.02 -44.78,7.83 -23.2,-37.28l-19.07 0c-6.63,16.12 -13.08,28.85 -13.08,29.75 -23.69,15.86 -31.54,-18.17 -43.32,-18.17 -7.84,0 -12.18,32.49 -41.92,12.57 0,-8.65 -0.92,-16.73 -2.16,-24.15l-15.09 0c0.34,0.92 0.71,1.79 1.13,2.56 12.8,23.55 -48.84,27.06 -73.38,-2.56l-8.13 0c5.23,6.96 10.88,13.55 15.17,19.96 -2.89,4.31 -4.18,3.1 -5.59,8.39 -34.11,0 -36.85,19.56 -70.1,4.42 -26.17,-11.92 -33.44,-23.09 -31.55,-32.76l-2.61 0c1.56,21.76 8.67,43.32 30.2,45.11 0,36.4 -17.24,4.71 -34.74,21.16 -35.71,33.59 -106.88,-63.08 -30.94,-63.08 0.38,-0.78 0.74,-1.88 1.16,-3.19l-510.75 0 -66.88 0 0 81.68 66.88 0 0 -0.7 53.22 0 -238.43 759.89 539.85 0 -245.12 -759.89 41.53 0 188.26 273.63 379.64 0 0 86.49 -202.43 0 0 67.47 132.09 0 0 140.7 45.52 0 0 601.52 -195.17 0 -69.97 124.17 350.27 0 350.27 0 -69.98 -124.17 -195.16 0 0 -601.52 45.52 0 0 -140.7 132.08 0 0 -67.47 -202.42 0 0 -86.49 434.49 0 151.71 -220.5 -221.77 706.75zm-1295.49 -59.73l352.46 0 -174.31 -536.79 -178.15 536.79zm373.91 -658.55l135.72 161.99 777.12 0 135.72 -161.99 -1048.55 0zm1015.27 658.55l352.46 0 -174.31 -536.79 -178.15 536.79z"/>
   <polygon class="fil2" points="3150.93,4642.9 4847.3,4642.9 4847.3,4782.44 3150.93,4782.44 "/>
  </g>
  <g id="_1842550435120">
   <polygon class="fil3" points="3793.21,4514.82 3818.12,4562.41 3840.51,4661.52 3914.98,4644.21 4005.4,4677.81 4108.68,4658.96 4180.52,4619.91 4317.96,4661.52 4474.6,4663.06 4502.72,4684.72 4556.23,4684.72 4560.59,4621.19 4466.26,4511.59 4417.34,4492.45 4350.94,4520.9 4296.85,4503.31 4267.49,4328.73 4271.94,4224.53 4208.7,4177 4185.96,4219.48 4111.21,4492.45 3853.9,4464.25 "/>
   <polygon class="fil3" points="3252.03,4649.01 3225.87,4501.06 3275.45,4447.69 3320.81,4437.74 3513.5,4470.99 3543.25,4478.03 3686.75,4178.53 3785.49,4149.15 3785.49,4206.71 3736.95,4370.95 3730.49,4464.66 3781.08,4519.57 3827.06,4574.27 3827.06,4675.22 3741.4,4641.39 3665.64,4615.77 3538.78,4634.31 3383.8,4658.61 3302.25,4628.54 "/>
   <polygon class="fil3" points="4367.23,4237.05 4459.93,4513.49 4552.88,4551.53 4674.01,4499.44 4751.65,4527.61 4877.33,4489.18 4996.54,4520.16 5109.33,4513.49 5181.91,4468.8 4429.22,3556.57 4429.22,3615.71 4459.93,3740.68 4497.25,3925.74 4494.71,4225.81 4391.52,4170.92 "/>
   <path class="fil3" d="M4146.01 4270.3l37.04 -70.95 23.74 -38.69 92.95 66.79 14.4 14.03c12.79,0 38.69,-38.69 56.92,-82.71l20.46 -36.52 65.49 66.53c22.39,30.05 28.74,12.78 28.74,-74.51l0 -83.7 -31.25 -30.07 -35.51 -24.56 -17.94 42.47c-19.76,50.48 -29.98,63.9 -47.32,53.01l-11.48 -21.63 -86.62 -84.09 -10.88 24.27c-11.77,67.43 -47.57,126.2 -62.34,103.58l-91.67 -58.52c-1.28,2.61 -1.28,40.29 3.52,81.14 4.18,42.6 11.15,100.75 14.05,130.47 3.17,30.64 7.7,55.62 10.24,55.62l27.46 -31.97zm-241.66 -149.95c-21.09,46 -42.1,84.44 -43.73,84.44 -5.44,0 -5.44,-1.99 -26.2,-74.47 -9.6,-30.09 -19.82,-58.89 -21.12,-62.05l-44.74 41.87 -45.63 50.52 -14.16 -51.81c-14.69,-66.12 -16.59,-76.4 -23.63,-76.4l-54.02 36.44 -56.26 38.04c-6.99,0 -5.08,-17.57 5.16,-54.61 30.62,-114.8 73.46,-330.14 89.8,-436.62 7.68,-65.87 15.31,-73.83 30.69,-47.91l31.89 -1.91c11.51,-31.98 39.94,-94.29 48.29,-98.84 10.25,-5.72 58.79,44.12 114.08,115.42 43.49,57.18 49.91,79.27 33.25,95.24 -11.52,12.77 -11.52,12.77 -30.62,-40.86l-16.04 8.88c14.77,60.43 14.05,77.72 -5.71,105.17l-30.99 25.93 -10.25 -145.15 -4.51 -18.83c-8.27,0 -15.97,-14.08 -28.72,-77.02l-20.49 -7.99 8.36 59.73 9.58 46.03 -33.87 38.67 -37.43 33.89 -5.79 -37.68 -10.14 -34.88 -11.51 32.3c0,32.65 13.41,97.49 20.36,97.49l36.79 -46.39 40.24 -44.74c6.44,0 14.12,38.42 14.12,85.33l6.37 55.65c5.15,17.31 6.43,17.31 42.85,-16.33l36.79 -33.52 1.26 30.64c3.82,71.92 10.88,74.47 63.23,36.52l24.29 -18.6 -4.06 46.68c-9.35,82.17 -34.92,171.95 -77.76,261.73zm-92.95 -185.36c0,40.95 1.9,75.45 6.37,75.45l82.8 -58.15 -26.56 -1.99 -33.24 22.12c-3.8,0 -6.35,-25.28 -6.35,-56.9 0,-44.12 -1.88,-56.9 -11.5,-56.9 -9.62,0 -11.52,14.03 -11.52,76.37zm-105.18 2.53c7.09,9.62 23.65,3.27 53.72,-24.91l25.18 -38.05 -25.18 10.88 -38.4 1.28 -35.16 -122.06c-13.42,-3.16 -12.78,17.57 0.63,60.66l12.87 71.96 6.33 40.23zm508.54 80.89l8.99 -58.5c0,-28.1 -4.82,-38.32 -35.53,-71.22l-40.94 -36.15 -14.05 30.69 -34.78 60.71 -25.64 36.42c0,9.6 16.67,20.13 71.3,59.18 51.81,33.87 56.28,31.87 70.66,-21.14zm176.77 -35.49l-22.37 45.75 -50.83 -42.23 -50.55 -44.37 -8.88 -49.27 12.15 -41.51 -5.16 -27.85 -21.12 35.18 -11.77 38.67 -51.85 -44.74 -54.26 -45.04 -8.32 37.06 -17.32 61.06c-23.9,38.32 -32.23,35.16 -42.47,-18.9 -22.37,-123.34 -69.03,-263.32 -117.24,-368.86 -30.08,-65.49 -94.95,-166.8 -98.22,-154.01 -1.26,3.17 10.24,35.53 25.29,69.4 54.36,127.5 50.55,113.43 30.08,104.47 -35.14,-19.86 -177.12,-177.66 -177.12,-198.79l38.4 12.14 25.82 10.89c3.3,-1.9 0,-33.02 -5.06,-69.05 -5.69,-35.49 -11.5,-80.89 -14.41,-99.13l-13.38 -37.04c-11.81,-3.15 -11.81,14.67 0,93.67 4.13,33.87 7.04,63.88 4.13,67.77l-34.11 -17.3c-23.03,-16.6 -35.9,-32.24 -45.42,-63.22 -19.83,-54.07 -19.83,-64.01 2.54,-86.72l37.7 -63.23 27.44 -43.78 31.72 46.68 40.87 64.86 14.77 18.17 14.93 -52.7 16.05 -65.87c0,-22.66 -14.79,-11.15 -23.4,19.47l-18.48 33.64c-6.4,1.89 -26.88,-26.3 -49.29,-59.78 -19.45,-36.79 -41.2,-67.77 -44.36,-69.05l-10.89 32.25c-5.69,40.3 -21.09,83.8 -30.71,83.8l0 -43.5c3.89,-36.77 1.99,-46.37 -5.06,-46.37 -9.61,0 -22.39,53.72 -28.83,124.4l-3.17 21 -9.87 -21c-21.1,-49.92 -56.9,-221.88 -67.78,-311.04 -13.41,-138.1 1.26,-272.62 46.68,-411.32 12.75,-40.58 20.46,-50.84 54.61,-75.73 47.29,-35.78 95.59,-97.52 84.07,-108.37l-25.89 17.59c-24.93,34.52 -56.26,62.58 -59.43,56.9 -10.24,-7.73 58.15,-93.71 172.95,-216.73l57.81 -68.68 34.52 -31.97 24.89 29.97 20.87 28.82 68.39 -77.98 -29.46 13.12 -30.71 26.84 -35.44 -56.57 18.85 3.21c14.07,7.66 15.33,5.67 25.91,-39.69 15.6,-58.46 15.6,-69.96 2.19,-69.96l-15.7 26.83c-6.32,35.14 -16.56,56.64 -24.9,51.16l-23.63 -39.67 -50.48 -83.72c-47.02,-64.23 -53.37,-82.15 -53.37,-133.61l-8.32 -68.42c-14.69,-42.77 1.26,-42.77 49.56,-1.27 54.98,47.92 74.74,49.29 130.09,9 40.23,-25.94 45.4,-27.83 87.51,-24.91 50.84,3.77 94.96,-10.89 66.88,-21.77 -8.34,-3.15 -54.73,-6.07 -102.01,-6.07 -107.74,0 -244.83,-14.05 -269.72,-26.18l-37.8 -78.61c24.38,-41.27 123.39,-41.27 213.92,0 30.97,12.75 83.97,29.99 168.68,58.79 46.02,14.05 106.46,23.36 197.25,34.16l33.51 13.48c-3.17,11.13 -60.44,39.31 -93.58,47.94l-23.65 6.94 40.21 62.07c43.51,65.51 48.31,85.98 29.46,121.12l-26.9 12.14 -78.92 -50.18 -10.21 34.87 -1.3 31 -38.94 -23.64c-48.65,-39.33 -54.73,-39.33 -61.7,3.15 -4.18,45.4 -13.51,51.13 -33.26,26.83 -21.73,-28.7 -33.25,-16.57 -14.03,14.77l14.67 51.77 8.96 26.49 43.78 -97.46 7.06 -17.59 56.8 48.3 17.96 20.4 23.37 -63.24 15.93 -17.6 14.67 5.46 24.93 35.44 24.26 27.54 21.76 -31.62c22.74,-36.81 27.54,-32.62 37.41,21.66 4.53,33.85 3.17,35.84 -27.44,70l-37.41 36.42 -24.93 -18.19 -47.67 -35.53 -31.97 -14.03 -7.62 20.82 -21.71 36.07 24.26 3.16 37.04 -22.98 35.52 29.41 44.78 20.48 36.69 -30.07c24.98,-25.56 32.61,-25.56 31.33,5.15 0,43.16 -73.83,190.47 -91.06,181.22l-11.5 -28.8c-10.25,-53 -33.24,-117.26 -40.94,-113.46l-17.59 38.96c-12.11,37.45 -44.13,92.45 -54.36,92.45 -3.79,0 -16.59,-30.1 -26.78,-67.78 -12.79,-36.82 -25.93,-68.69 -27.19,-71.3l-26.83 27.78c-50.55,79.31 -73.55,111.3 -81.16,111.3l-25.93 -38.36 -21.1 -36.5 -32.63 37.75 -69.94 78.05 -45.39 40.59 12.12 72.48 11.51 74.2 -23.63 25.55c-34.89,38.69 -62.97,62.34 -73.19,56.53l-6.44 -29.97 -10.14 -26.56c-10.25,0 -11.51,10.51 -11.51,52.73l6.33 53.07 115.42 -91.13 27.09 -18.85 29.46 65.25 9.23 17.82c9.98,7.43 61.71,-29.99 109.38,-78.9 39.58,-39.6 43.47,-42.84 51.71,-30.09l21.75 61.7 16.67 52.09 77.64 -81.82 11.52 -18.46 30.96 53.35c13.41,30.64 32.63,59.45 37.7,64.24l37.77 0 23.03 -11.23 0 92.43c0,51.44 3.15,137.05 8.23,192.07 8.06,88.87 6.71,102.9 -5.08,147.03l-19.2 47.93c-6.99,0 -30.64,-58.17 -44.76,-110 -11.77,-53.35 -27.79,-62.23 -24.29,-17.55 6.69,59.14 51.82,157.29 88.25,187.98 11.52,8.98 11.78,5.07 13.14,-30.69l5.72 -55.29c4.8,-12.12 7.7,-4.51 14.69,29.34 5.79,24.67 20.45,84.47 32.61,131.4 30.72,122.41 30.72,120.47 21.74,120.47 -13.4,0 -69.03,-66.49 -87.89,-106.07l-22.37 -43.78 -25.56 22.03 -33.62 47.92 -17.18 27.58c-7.7,0 -27.56,-42.84 -35.8,-72.96l-26.9 -11.5 67.48 133.26 15.33 -8.59 45.38 -99.78 8.99 7.47c0,15.57 63.59,92.93 98.75,124.53 37.04,28.82 40.85,36.52 60.07,96.22 9.59,35.18 16.67,67.79 15.31,70.33 -5.72,4.14 -65.16,-62.26 -94.6,-105.11 -21.73,-32.62 -43.49,-47.93 -43.49,-31.35 0,15.32 54.36,85.73 111.26,142.54 61.06,60.77 64.87,67.09 106.46,163.31 66.12,156.32 84.06,205.6 77.62,211.68l-10.24 -2.65c-1.26,-4.8 -31.97,-46.95 -67.38,-93.57 -35.16,-47.69 -94.3,-126.95 -127.58,-177.76 -57.8,-84.99 -80.17,-112.82 -60.07,-76.4 10.23,16.33 35.16,93.04 63.34,186.63 26.19,86.63 55.25,242.9 62.24,325.73 4.16,75.11 6.42,73.85 -44.4,27.52l-23.66 -15.37 -16.57 47.28zm-5.79 -77.3l-32.01 -53.08 -18.46 -34.88c0,-19.14 15.3,-9.54 39.59,23 21.74,33.9 23.66,33.9 30.72,17.96l3.79 -46.04c-3.79,-30.34 13.41,-38.93 20.47,-8.95l-21.75 114.14 -22.35 -12.13zm-147.95 -160.82l41.49 25.28c7.06,0 10.23,-16.65 14.77,-49.91l7.6 -54.88 31.97 16.57 47.67 14.69 -39.04 -41.51c-33.54,-35.49 -38.71,-37.43 -48.21,-25.29l-18.58 59.18 -16.59 43.78c-12.13,0 -59.8,-49.58 -77.74,-81.82 -33.87,-56.87 -35.12,-58.16 -44,-29.45l-10.26 44.47 -16.02 44.14 -27.81 -23.65 -26.19 2.53 70.02 51.09c12.77,0 20.4,-29.34 20.4,-63.57 0,-25.57 8.34,-21.41 35.14,14.03l55.37 54.34zm29.97 -170.05l-53 -100.65c0,-21.73 15.33,-10.49 31.99,23.64 22.3,45.39 37.71,50.2 37.71,15.31 0,-35.81 12.13,-70.29 24.26,-59.45l-1.9 46.06 -7.06 64.87c0,29.46 -10.24,33.22 -31.99,10.22zm-256.29 -28.08l-28.71 -44.4 -9.99 -17.32 -4.8 -35.47 28.83 36.77c29.98,46.41 43.47,42.23 37.67,-9 -5.72,-40.56 4.43,-56.5 17.3,-24.88 8.88,24.88 6.99,65.49 -3.25,104.19l-8.24 29.07 -28.8 -38.96zm99.38 -6.7l-36.07 -78.65c2.55,-14.04 3.81,-14.04 20.75,15.93l27.48 35.81 18.54 -28.1 27.48 -15.93 -17.22 50.82 -16.67 40.9 -24.29 -20.77zm-212.19 -172.96l48.53 44.11c3.2,0 7.73,-28.7 8.34,-61.33 0,-33.62 6.35,-62.96 9,-64.24l37.95 33.55c34.51,42.84 72.28,71.52 80.55,63.32 3.89,-4.53 10.21,-31.37 15.4,-63.32 5.72,-29.73 13.05,-54.66 17.58,-54.66 2.53,0 21.73,26.83 39.59,59.81 18.57,29.38 37.68,56.18 40.29,56.18l20.13 -32.54 22.39 -37.79 22.35 34.28c14.69,36.05 30.64,48.21 30.64,23.89l-12.13 -36.42 -20.4 -49.17 -19.2 -29.46 -20.75 33.62c-21.76,57.54 -25.64,55.89 -68.39,-16.06 -19.2,-36.4 -39.69,-67.04 -45.13,-68.39 -6.97,-1.92 -14.67,31.99 -28.09,118.59l-12.15 30.07c-13.41,0 -68.38,-65.5 -88.5,-101.91l-21.13 -37.14 -24.9 117.7 -5.79 28.35c-10.88,0 -64.23,-65.16 -82.81,-98.77l-30.64 -15.32c0,15.32 49.22,83.45 87.26,123.04zm114.07 -187.29c-50.84,-56.9 -89.14,-120.48 -89.14,-147.31 0,-24.89 15.93,-8.95 38.3,37.37 24.29,47.33 47.03,77.72 58.52,77.72 1.27,0 11.51,-23.38 22.41,-53.38 17.82,-61.71 26.18,-77.1 35.76,-70.66l-9.58 55 -20.49 86.6 -9.61 35.4 -26.17 -20.75zm74.2 -229.1c-31.97,-32.36 -62.07,-86.36 -71.03,-127.93 -6.35,-40.23 12.85,-32.53 25.64,9.33 10.88,39.59 38.94,90.12 51.71,94.55l15.06 -9.58c15.3,-44.13 60.05,-127.49 67.78,-127.49 12.13,0 12.13,-1.99 -14.69,55.93l-35.78 92.68 -11.51 41.23 -27.17 -28.72zm-233.39 -10.61c-40.23,-65.88 -67.78,-168.43 -38.93,-143.48l12.11 24.23 36.81 87.28 14.67 -19.76c23.65,-60.17 49.19,-108.37 58.81,-108.37 12.13,0 13.39,-1.88 -13.41,55.62l-33.26 91.05 -16.32 41.27 -20.47 -27.83zm-182.45 -17.87c-29.44,-26.26 -70.66,-99.45 -70.66,-118.59 0,-18.54 17.94,-4.18 41.22,42.5 26.92,45.66 38.39,61.99 50.52,61.99 1.9,0 16.59,-24.91 29.38,-55.56 12.14,-31.72 30.08,-55.95 34.24,-55.95 12.78,0 15.95,-3.86 -14.68,65.49 -15.02,33.87 -27.79,64.56 -27.79,71.89 0,22.76 -13.41,18.85 -42.23,-11.77zm85.96 -205.82c-23.36,-26.3 -50.82,-96.61 -57.14,-147.42l-5.83 -56.18c12.15,-9.3 20.5,14.05 28.86,58.2 6.95,50.08 34.11,115.32 43.36,107.99l26.56 -52.72c20.46,-55.27 44.12,-91.13 53.72,-82.81l-12.15 39.67 -35.79 85.98c-21.74,59.41 -26.28,63.6 -41.59,47.3zm182.48 -24.9c-38.96,-58.29 -69.68,-164.65 -49.19,-164.65l19.21 38.96c9.6,44.12 41.49,118.59 52.35,118.59l14.78 -28.16c11.79,-36.44 50.11,-115.36 66.15,-131.29 24.26,-28.79 19.82,-1.99 -8.36,56.88 -18.57,33.51 -38.96,80.2 -46,104.49l-19.49 42.84 -29.46 -37.66zm218.61 -1.4c-44.02,-75.38 -68.66,-169.04 -49.81,-176.03l10.24 6.99 50.47 142.24c13.39,12.15 14.03,9.58 37.78,-37.04 22,-52.49 43.76,-77.01 52.08,-67.13l-8.32 23.99c-20.47,31.6 -43.5,85.98 -48.28,114.09l-14.05 29.7 -30.09 -36.81zm-204.48 -898.99c-42.21,-64.25 -53.08,-86.62 -44.72,-93.05 6.32,-3.15 19.1,11.5 40.21,44.74l27.54 15.31c13.05,-3.16 14.31,-1.28 14.31,32.99l-6.06 38.96 -31.28 -38.96zm238.39 -102.05l-21.76 -33.84 21.76 4.16 14.77 0 13.67 -8.91 3.29 61.64 -31.72 -23.05zm-113.45 4.2l-38.32 -29.99 9.52 -21.48c19.21,10.61 19.21,8.07 5.16,-21.38 -14.69,-29.44 -1.27,-37.7 15.31,-10.21l28.18 47.02 22.65 38.96 -42.5 -2.91zm-115.4 2103.71l19.57 -41.47 -27.22 -66.52c-17.28,0 -31.95,37.7 -31.95,84.73 0,56.9 7.05,60.07 39.6,23.26zm-222.09 -302.7l23.67 -46.92 -64.25 -66.85 -4.5 130.72 17.3 27.17 27.79 -44.13zm552.95 -1057.92l-23.65 16.3c-19.84,0 -48.67,-50.16 -63.34,-106.69l-9.87 -35.18 32.91 -38.96 32.58 -37.43 30.12 58.15c25.53,49.6 27.71,62.35 25.53,92.99l-24.27 50.82zm-349.35 -46.02c-29.44,26.26 -50.53,31.35 -50.53,10.88l-15.97 -36.44 -14.67 -34.8 40.83 -56.28 57.54 -64.19 18.58 -20.48 47.66 96.2c0,15.28 -43.21,69.66 -83.44,105.1zm178.93 -1.26l-19.46 16.64 -41.51 -115.42 35.8 -46.66 32.91 -39.33c5.79,0 26.78,52.74 32.61,85.99 5.07,33.91 -5.83,61.45 -40.33,98.78zm-219.27 -145.44c58.84,-68.64 67.78,-83.41 61.45,-115.69 -10.26,-49.17 -13.51,-49.17 -78.38,17.3 -67.14,67.42 -63.23,59.06 -47.94,136.73 3.82,26.92 9.25,21.73 64.87,-38.34zm446.22 -61.06c8.34,-46.03 15.31,-92.31 15.31,-103.8l0 -20.5 -17.84 23.01 -19.84 27.82 -27.83 39.58 -27.44 33.89 18.48 49.29 22.73 60.67c12.79,16.35 19.47,-5.42 36.43,-109.96zm-130.11 69.01c44.14,-54.87 46.68,-67.73 35.16,-121.75 -14.97,-82.42 -20.38,-89.5 -43.14,-51.07l-40.2 56.53 -26.28 31.31 19.2 56.92c8.96,29.72 20.45,56.55 26.82,56.55l28.43 -28.49zm-122.02 -48.52c28.43,-54.38 32.91,-91.05 17.58,-141l-17.58 -37.33c-7.7,0 -21.12,17.59 -43.49,54.04l-33.27 47.28 -24.89 34.18 24.89 50.51c24.29,48.21 26.82,52.39 40.96,42.52l35.8 -50.18zm-278.15 -485.81l-13.41 -28.2 -38.32 -25.79c-62.34,-8.05 -173.85,6.72 -173.85,24.54 0,10.25 22.35,14.12 114.05,23.03 51.18,5.15 92.42,9.6 94.96,11.5l16.56 -5.08zm-23.01 -121.13c-20.38,-68.13 -88.52,-105.2 -158.46,-88.87l-54.36 22.08 -42.84 85.27 0 21.09 55.64 -5.05c28.8,-1.27 84.08,0 119.85,6.95 84.08,12.86 94.3,7.72 80.18,-41.47zm-101.27 -22.35l15.4 -20.49c33.77,12.77 45.63,45.4 15.93,45.4l-31.32 -24.91zm268.54 30.68c37.95,-17.57 30.97,-49.52 -9,-35.86l-36.4 -3.15 -33.25 1.89c0,35.12 41.49,53.73 78.65,37.12z"/>
   <path class="fil3" d="M2070.47 4223.27l-54.65 50.18 -24.64 -3.15c0,-8.95 21.75,-108.36 47.92,-220.51 28.19,-110.27 60.07,-251.26 76.11,-311.68 14.05,-60.41 38.69,-157.53 52.72,-216.98 13.41,-57.52 35.8,-143.23 43.5,-189.27 29.34,-124.05 34.14,-138.09 43.38,-138.09l117.72 -60.04 28.08 -19.86c1.9,0 -10.24,69.71 -26.18,150.58 -108.36,540.45 -206.5,843.14 -303.96,958.82zm235.17 -92.02c49.29,-57.83 113.53,-210.91 156.93,-380.35 57.27,-213.17 134.27,-637.02 143.23,-790.76 3.17,-32.88 1.92,-32.88 -18.83,-31.6 -42.87,3.52 -70.95,11.5 -75.48,24.25l-10.25 62.35c-8.86,49.19 -46.27,248.04 -77.01,391.56 -28.72,152.11 -93.57,414.87 -153.1,628.33 -17.84,68.37 -33.24,130.07 -33.24,135.89 0,17.86 37.14,-4.57 67.75,-39.67zm148.05 -62.98c69.3,-57.83 129.1,-181.54 189.79,-399.2 30.71,-110.26 84.72,-368.19 109.63,-532.8 10.23,-52.99 20.49,-115.94 25.56,-141.61l7.07 -54.63c0,-11.5 -32.63,-11.5 -68.4,0 -32.91,10.61 -34.17,14.64 -55.29,133.28 -29.43,175.84 -117.3,535.96 -197.23,809.33 -66.12,231.63 -66.12,231.63 -11.14,185.63zm225.6 -115.98c43.83,-28.18 71.29,-73.58 92.42,-152.48 6.97,-35.14 17.19,-75.75 21.1,-89.78 29.71,-107.1 136.81,-584.62 157.18,-707.68l1.9 -49.58c-3.17,-2.15 -34.78,-4.8 -69.31,0l-61.7 5.19 -8.32 40.58c-2.83,23.03 -9.91,67.41 -16.61,100.66 -32.61,183.48 -72.84,387.05 -78.61,415.85 -16.33,73.85 -91.05,402.7 -98.14,427.02l-5.71 32.61c0,9.23 28.08,0 65.79,-22.39zm212.26 -160.82c-33.89,40.98 -41.57,39.08 -35.15,-3.77 38.96,-280.7 89.16,-587.22 121.75,-725.89 19.86,-74.75 23.03,-82.46 38.97,-84.34l59.8 -17.34c45.38,-16.27 68.39,-13.43 68.39,11.26 -2.52,37.41 -39.67,231 -80.55,383.5 -48.28,203.91 -114.78,369.82 -173.22,436.57zm277.69 -341.98c43.5,-46.95 77.39,-101.59 119.24,-186.31 31.99,-64.6 73.56,-181.29 73.56,-206.19l-41.57 -86.89 -135.82 31.6c-24.64,24.67 -77.72,334.05 -77.72,463.44 0,32.61 3.25,34.52 12.86,27.81l49.45 -43.46zm358.71 -360.13c15.56,-44.79 16.91,-81.83 2.78,-101.07 -7.58,-10.82 -8.86,-10.82 -37.95,4.47 -25.64,14.77 -31.36,22.37 -42.23,64.89 -11.52,49.28 -19.84,172.93 -7.69,183.15 5.17,8.34 62.68,-96.2 85.08,-151.45zm-1185.78 11.74c26.8,-15.93 78.28,-72.57 93.57,-106.44 15.33,-31.89 28.49,-94.87 20.77,-102.93l-46.95 -4.04 -39.65 1.9 -5.09 42.13c-2.25,22.37 -14.67,69.99 -28.8,108.72 -12.4,36.15 -22.66,66.5 -22.66,67.76l28.82 -7.09zm-32.61 -236.82c-38.42,86.36 -92.68,184.12 -92.68,171.33 0,-3.19 54.26,-217.99 106.73,-411.08 26.53,-99.64 27.81,-101.64 69.92,-145.41l70.69 -77.97 31.58 -32.26c15.69,0 -102.92,324.06 -186.25,495.39zm1116.07 83.7l94.59 -46.27 7.73 -206.85 -31.99 0c-24.29,5.45 -28.82,10 -43.51,48.32l-40.23 81.54c-36.77,67.02 -50.18,141.87 -20.82,134.17l34.24 -10.89zm-126.91 -57.79l-81.44 19.84c-2.63,-3.5 11.49,-59.78 31.89,-125.01 32.98,-107.73 39.05,-121.78 64.87,-144.81l69.75 -28.45 37.97 77.02c-0.89,43.24 -80.18,175.49 -123.04,201.41zm-180.93 3.15c24.38,-8.32 62.71,-51.73 82.18,-93.95 18.57,-39.94 41.58,-122.71 41.58,-153.99l-31.97 -67.48 -39.69 11.2 -38.59 11.5 -21.12 92.33c-61.69,233.64 -61.69,226.95 7.6,200.39zm-142.14 -8.32c35.14,-19.76 73.11,-99.02 98.4,-196.88 24.65,-99.02 24.65,-106.37 0,-149.21l-38.69 -34.26c-28.45,0 -52.09,32.36 -71.21,89.86 -34.51,120.53 -74.45,286.69 -72.57,295.65l84.09 -5.17zm-146.15 -33.5c32.01,-36.82 51.85,-81.19 72.32,-176.8 25.55,-108.97 25.55,-125.53 0,-149.83l-19.21 -50.2 -19.84 -35.49 -61.06 28.16c-13.41,23.29 -48.58,144.41 -73.48,257.59l-17.22 71.61c-15.65,49.52 6.99,83.41 60.73,83.41 29.98,0 36.41,-4.43 57.77,-28.43zm-192.96 -26.82c-39.68,50.82 -71.93,41.84 -81.55,-23.4 -4.43,-38.69 2.56,-76.37 47.32,-256.04 20.1,-75.37 37.41,-144.77 39.3,-157.53l24.31 -32.91 59.78 14.05 23.63 40.6 24.3 28.8 -10.26 50.45c-35.14,175.78 -66.49,261.11 -126.83,335.96zm-168.77 -53.1l-43.51 26.21 15.31 -51.13c8.34,-24.92 23.03,-75.73 36.52,-115.4 12.13,-40.24 41.88,-132.65 68.04,-205.86 34.53,-109.63 46.37,-135.18 58.18,-137.73 32.86,-3.78 34.24,14.71 11.22,112.81 -48.28,186.66 -90.51,296.66 -145.76,371.11zm1075.76 -207.74l-32.26 19.2c-32.61,4.09 -64.56,-10.62 -89.49,-36.79 -23.3,-26.53 -33.52,-25.27 -68.68,7.31l-40.95 24.33 -61.7 -40.87c-15.95,-24.31 -16.57,-24.31 -67.04,-24.31 -41.23,0 -54.73,-3.89 -65.61,-16.64 -14.67,-16.98 -17.82,-59.8 -4.41,-100.65 14.67,-43.14 8.31,-62.96 -23.67,-84.73 -57.88,-43.47 -54.61,-91.77 3.82,-182.82 31.33,-40.85 31.33,-61.7 6.44,-69.67l-37.7 -62.34 47.91 -89.5c24.29,-26.48 21.12,-38.32 -19.21,-54.65l-18.54 -39.28 9.58 -55.66 -5.07 -31.87c-15.68,-10.24 -36.15,-1.97 -80.9,33.15 -47.57,40.95 -104.49,59.8 -147.95,54.38 -30.73,-5.46 -33.51,-4.18 -80.17,33.59 -58.91,48.85 -162.11,104.45 -248.07,134.54 -96.22,31.97 -103.29,26.18 -29.44,-21.11 67.12,-40.61 137.77,-100.04 186.33,-155.02 69.42,-75.75 210.29,-162.72 307.78,-187.9 28.81,-7.08 77.74,-11.5 126.91,-11.5 69.06,0 83.72,3.17 114.09,18.48 141.6,71.32 149.3,208.99 26.26,449.35 -40.31,77.01 -42.21,85.7 -42.21,134.56 0,44.09 3.8,59.8 21.1,88.61 42.13,74.7 120.51,104.43 236.48,89.41 70.03,-11.81 104.54,-4.45 104.54,19.56l-28.17 158.83zm-553.2 -106.47c-40.31,35.53 -69.38,30.73 -69.38,-15.95l26.26 -46c30.97,-30.73 37.33,-31.99 65.51,-7.7 24.91,21.75 19.12,33.88 -22.39,69.65zm-655.2 -19.1c53.99,-32.63 119.87,-98.12 157.28,-162.7l25.56 -42.5 -17.32 -32.98c-31.27,-54.93 -32.87,-53.99 -64.23,2.24 -40.87,87.88 -124.3,175.14 -170.32,252.86 -7.09,19.47 19.2,12.14 69.03,-16.93zm576.21 -64.62l59.8 -41.82 21.12 -47.93 -14.07 -28.8 -210.25 97.19 10.77 27.09c16.03,19.57 19.84,21.1 56.88,18.29l75.75 -24.03zm-117.88 -89.75c-75.45,26.8 -125.01,23.01 -132.01,-8.32 -7.68,-30.75 3.83,-43.78 76.38,-93.07 40.87,-26.44 105.18,-73.47 144.78,-103.8 42.87,-30.1 77.64,-54.04 81.54,-54.04l19.12 20.13 30.09 42.23 18.48 29.35c0,13.39 -75.4,80.28 -130.67,113.8 -30.07,19.46 -78.63,42.84 -107.72,53.72zm-81.14 -156.02c79.25,-30.7 298.49,-168.42 297.24,-188.27l-33.89 -44.74 -30.71 -37.36 -68.77 30.66c-84.62,37.38 -241.02,129.08 -280.22,166.87l-51.16 80.18c0,23.34 100.63,16.64 167.52,-7.35z"/>
   <path class="fil3" d="M5990.25 4275.41l-57.9 -25.95c-62.59,-60.67 -106.73,-146.06 -163.98,-313.8 -45.65,-135.84 -134.56,-502.4 -166.16,-678.23l-17.32 -88.54c-10.23,-41.58 -10.23,-51.75 0,-51.75l14.15 8.91 101.29 59.16c33.52,10.53 30.71,-3.52 106.44,325.98 20.38,84.73 61,253.51 140.25,575.03 23.64,101.31 43.23,187.26 43.23,189.21zm-261.2 -158.21c-84.36,-291.87 -185.65,-728.46 -241.91,-1035.31 -25.27,-146.06 -22.74,-138.02 -50.82,-146.06l-43.49 -9.23 -23.27 3.83c-5.19,9.6 11.76,140.68 50.1,364.37 72.28,439.54 151.21,701.52 248.06,826.21 26.81,37.75 61.33,63.59 69.68,55.61 2.88,-3.83 -1.28,-28.74 -8.34,-59.43zm-160.08 -36.15c-10.26,-25.55 -119.24,-415.15 -142.24,-510.08 -38.32,-150.21 -54.39,-225.68 -96.86,-432.79l-38.96 -185.4 -38.42 -12.75c-45.01,-17.87 -56.53,-13.44 -56.53,14.64 0,66.91 74.83,470.86 117.32,639.33 46.02,177.65 110.27,351.23 157.57,414.57 35.52,48.83 112.15,103.83 98.12,72.48zm-218 -167.81c-7.05,-31.25 -16.57,-66.75 -20.46,-79.51 -31.26,-116.72 -145.42,-680.13 -166.51,-844.17l-4.8 -32.86 -65.16 -6.05c-36.4,-2.66 -68.12,-2.66 -71.29,2.15 -9.87,9.99 54,311.67 148.93,704.15 48.58,205.49 56.28,221.78 84.36,256.3l104.54 62.71c1.28,-1.26 -1.27,-30.71 -9.61,-62.71zm-232.03 -141.58c3.82,31.97 2.56,51.79 -1.26,51.79 -28.79,0 -112.88,-154.98 -152.5,-278.68 -46.35,-144.11 -110.87,-421.94 -130.07,-556.47 -5.09,-29.42 -2.54,-33.62 7.68,-37.65l53.72 9.5 61.64 17.34 26.26 35.38c19.1,58.92 53.01,231.79 73.22,356.07 45.28,276.8 54.89,355.14 61.31,402.73zm-251.86 -369.11c-12.77,-151.19 -45.38,-340.73 -66.49,-385.51 -9.89,-19.76 -19.84,-24.27 -73.19,-36.4 -30.66,-6.35 -62.34,-10.52 -67.43,-9l-28.08 44.13 -22.37 41.9 24.91 72.28c30.64,90.4 72.22,178.92 112.17,238.99 34.15,55.64 113.42,135.26 121.12,125.29 3.81,-3.17 3.81,-43.39 -0.64,-91.67zm-328.86 -233.01c0,38.28 0,71.28 -2.56,73.18 -7.7,8.65 -89.87,-153.35 -116.68,-231.1l-14.05 -54.92 103.83 52.12c15.38,21.72 29.46,92.29 29.46,160.73zm1124.41 -62.6c0,-3.56 -11.51,-35.15 -23.63,-71.32 -13.52,-34.53 -24.36,-82.83 -27.82,-105.19l-7.05 -40.85 -41.59 -1.9c-43.41,-2.66 -43.41,-2.66 -43.41,20.38l37.68 113.53c29.35,45.65 105.82,107.07 105.82,85.35zm64.23 -207.14c18.51,71.84 31.62,130.73 30.62,132.63 -9.51,8.62 -128.72,-239.73 -180.81,-370.45 -43.49,-110.87 -98.14,-274.87 -93.07,-286.38l28.09 23.38 69.42 78.28c30.07,33.5 44.37,55.91 53.37,83.08 4.53,21.45 21.74,76.1 33.25,124.02 14.05,46.66 40.96,143.78 59.14,215.45zm-1125.05 48.19c6.35,-16.27 -8.61,-66.75 -38.68,-125.27l-38.98 -85.02c-12.11,-30.08 -15.38,-34.1 -54.36,-44.74l-68.74 -30.98 -37.06 -23.36c-17.59,0 7.09,136.16 32.62,188.24 32.62,61.44 84.7,102.3 156.29,123.78 45.1,12.13 42.49,12.13 48.92,-2.66zm158.19 -39.92l-10.26 7.05 -71.18 -23.38c-40.95,-27.45 -98.48,-113.68 -117.7,-182.73 -7.97,-25.9 -7.33,-32.32 9.95,-64.97l33.54 -35.44 77.01 53.38 78.65 246.09zm156 -26.82c-1.9,-11.52 -20.21,-78.28 -37.41,-149.21 -30.71,-120.26 -32.63,-127.58 -53.09,-134.31 -50.83,-20.43 -57.83,-19.8 -76.38,6.73 -21.73,30.1 -19.84,56.24 10.88,147.3 30.69,93.7 80.27,149.96 135.8,149.96l20.21 -20.47zm166.5 8.34c3.2,-9.62 -62.04,-284.5 -81.51,-332.15l-56.91 -52.75 -62.31 83.8c0,26.8 28.79,140.62 49.54,191.44 18.58,53.63 55.65,103.23 81.55,113.42l69.65 -3.77zm173.52 -25.3l14.77 -32.24c0,-30.73 -81.91,-348.1 -95.31,-366.02 -28.72,-37.34 -75.73,-39.23 -75.73,-0.91l-38.96 68.66c-18.61,0 17.85,186.1 53.63,267.54l42.57 60.73 99.02 2.24zm153.47 -25.52c-47.03,67.78 -138.71,-82.48 -181.55,-297.94 -21.12,-97.46 -21.12,-101.62 -7.7,-115.4l25.55 -41.86c16.68,-37.66 41.95,-46.02 70.66,-23.92 10.89,11.13 24.92,46.02 49.21,149.21 55.99,220.89 66.23,297.89 43.84,329.91zm140.27 -44.17l-29.38 -7.06c-42.47,-48.54 -91.75,-161.33 -131.34,-294.6 -48.92,-177.14 -52.1,-194.96 -23.39,-202.69l22.11 -3.17 162 507.53zm-1028.23 -222.15l-47.29 10.62c-36.69,2.81 -48.81,0 -60.32,-10.62 -58.17,-47.55 -51.21,-159.18 7.59,-186.97 18.6,-9.89 32.99,-9.89 90.53,-1.92 114.07,15.41 184.7,-9.89 234.56,-83.1 19.2,-27.42 19.83,-37.38 19.83,-91.01 0,-59.55 0,-63.32 -42.86,-143.25 -58.51,-118.21 -80.18,-183.47 -80.18,-261.75 0,-47.67 2.56,-68.05 15.33,-89.78 21.39,-43.49 48.93,-69.4 92.95,-91.13 31.99,-15.31 46.04,-18.48 115.42,-18.48 95.59,0 155.66,14.05 231.38,54.27 89.16,47.27 143.52,86.6 214.82,158.53 56.28,56.9 96.86,90.44 168.42,139.71 74.48,49.19 74.48,52.98 -3.79,28.72 -82.55,-24.9 -180.66,-74.76 -253.88,-130.11 -63.86,-47.91 -67.04,-50.47 -97.38,-45.66 -40.95,7.35 -111.63,-17.58 -142.25,-46.99 -29.43,-27.11 -56.25,-46.31 -68.4,-46.31 -20.21,0 -26.53,28.72 -15.39,67.11 15.39,43.14 9.95,57.85 -23.3,71.85l-15.3 44.13 28.09 36.15c32.86,45.39 30.97,79.56 -8.34,116.68l-27.46 30.02 27.46 42.85c59.16,94.95 60.41,137.08 5.8,186 -38.43,34.88 -40.31,39.7 -24.29,83.45 15.31,42.84 14.03,80.53 -3.27,98.71 -13.39,14.69 -22.37,18.58 -66.76,18.58 -51.73,0 -53.75,0 -65.86,21.03 -14.05,30.09 -42.5,48 -62.96,41.84l-44.05 -26.42c-33.26,-28.19 -40.68,-28.19 -62.97,-3.93l-25.01 18.6 -10.88 8.58zm527.11 -105.09l-21.11 14.71 -72.55 -55.27 -5.09 -27.83 27.45 -19.57c14.05,-14.68 33.89,-8.63 62.33,24.99 25.56,29.36 27.46,48.21 8.97,62.97zm654.22 -21.46l-37.7 -50.45c-31.36,-38.71 -100.02,-145.79 -127.55,-200.13l-25.93 -43.43 -19.74 24.31 -19.2 29.31c-37.68,24.68 77.64,181.59 175.76,239.1l53.1 21.41 1.26 -20.13zm-505.01 -60.42l11.51 -25.22 -205.85 -110.6 -16.56 28.16 -8.34 27.85 34.25 33.13c63.87,54.06 148.57,75.75 185,46.68zm101.39 -91.34c-65.58,24.3 -213.53,-39.02 -316.82,-138.05l-44.03 -39.69 25.53 -28.08 32.63 -46.03 14.67 -17.59c3.81,0 41.86,24.56 83.45,56.55 43.49,30.73 109.64,77.36 147.31,102.57 66.13,45.1 71.3,49.29 73.22,74.46l-15.95 35.86zm112.79 -146.74l14.69 -25.58 -20.48 -45.03c-26.82,-36.5 -165.52,-123.13 -281.61,-176.48 -97.11,-44.13 -85.32,-44.13 -125.53,-1.55l-33.93 37.7 19.23 21.12c36.06,33.26 174.78,120.47 239.63,151.49 81.54,37.07 144.26,50.44 187.99,38.34z"/>
  </g>
  <path class="fil4" d="M3641.03 6609.54c-28.28,0 -55.39,-3.79 -81.32,-11.37 -25.93,-7.58 -46.81,-17.42 -62.63,-29.55l27.78 -61.62c15.15,10.78 33.08,19.62 53.79,26.52 20.71,6.9 41.67,10.35 62.88,10.35 16.16,0 29.21,-1.6 39.15,-4.8 9.93,-3.2 17.26,-7.66 21.97,-13.39 4.72,-5.72 7.07,-12.29 7.07,-19.69 0,-9.43 -3.71,-16.92 -11.11,-22.48 -7.41,-5.56 -17.17,-10.1 -29.29,-13.64 -12.12,-3.53 -25.51,-6.9 -40.15,-10.1 -14.65,-3.2 -29.29,-7.16 -43.94,-11.87 -14.65,-4.71 -28.03,-10.78 -40.15,-18.18 -12.12,-7.41 -21.97,-17.17 -29.55,-29.29 -7.58,-12.12 -11.37,-27.61 -11.37,-46.47 0,-20.2 5.47,-38.64 16.41,-55.3 10.95,-16.67 27.45,-29.97 49.5,-39.9 22.05,-9.93 49.75,-14.9 83.08,-14.9 22.22,0 44.11,2.61 65.66,7.83 21.55,5.22 40.58,13.05 57.07,23.49l-25.25 62.13c-16.5,-9.43 -33,-16.42 -49.5,-20.96 -16.5,-4.54 -32.66,-6.82 -48.49,-6.82 -15.83,0 -28.79,1.85 -38.89,5.56 -10.1,3.7 -17.34,8.5 -21.72,14.4 -4.38,5.89 -6.57,12.71 -6.57,20.45 0,9.09 3.71,16.42 11.11,21.97 7.4,5.56 17.17,10.02 29.29,13.38 12.12,3.37 25.51,6.74 40.15,10.1 14.65,3.37 29.29,7.24 43.94,11.62 14.65,4.38 28.03,10.27 40.15,17.68 12.12,7.41 21.97,17.17 29.55,29.3 7.58,12.12 11.37,27.44 11.37,45.96 0,19.87 -5.56,38.05 -16.67,54.55 -11.11,16.5 -27.69,29.8 -49.75,39.9 -22.06,10.1 -49.92,15.15 -83.59,15.15zm281.33 -217.19l170.21 0 0 63.64 -170.21 0 0 -63.64zm6.06 145.46l192.44 0 0 65.66 -273.75 0 0 -353.55 267.19 0 0 65.66 -185.87 0 0 222.24zm426.79 71.72c-27.28,0 -52.61,-4.46 -76.01,-13.39 -23.4,-8.92 -43.69,-21.63 -60.86,-38.13 -17.17,-16.5 -30.56,-35.86 -40.15,-58.09 -9.6,-22.22 -14.4,-46.64 -14.4,-73.24 0,-26.6 4.8,-51.01 14.4,-73.24 9.6,-22.22 23.06,-41.58 40.4,-58.09 17.34,-16.5 37.63,-29.21 60.86,-38.13 23.23,-8.93 48.65,-13.39 76.27,-13.39 30.64,0 58.34,5.3 83.09,15.91 24.75,10.61 45.54,26.18 62.38,46.72l-52.53 48.49c-12.12,-13.81 -25.59,-24.16 -40.4,-31.06 -14.82,-6.9 -30.98,-10.35 -48.49,-10.35 -16.5,0 -31.65,2.69 -45.46,8.08 -13.81,5.39 -25.76,13.13 -35.86,23.23 -10.1,10.1 -17.93,22.06 -23.49,35.86 -5.56,13.81 -8.33,29.13 -8.33,45.96 0,16.83 2.78,32.16 8.33,45.96 5.56,13.81 13.38,25.76 23.49,35.86 10.1,10.1 22.06,17.85 35.86,23.23 13.81,5.39 28.96,8.08 45.46,8.08 17.51,0 33.67,-3.45 48.49,-10.35 14.82,-6.9 28.28,-17.42 40.4,-31.56l52.53 48.49c-16.84,20.54 -37.63,36.2 -62.38,46.97 -24.75,10.78 -52.61,16.17 -83.59,16.17z"/>
 </g>
</svg>
